<?xml version="1.0" encoding="utf-8"?>
<!-- Generator: Adobe Illustrator 15.0.0, SVG Export Plug-In . SVG Version: 6.00 Build 0)  -->
<!DOCTYPE svg PUBLIC "-//W3C//DTD SVG 1.1//EN" "http://www.w3.org/Graphics/SVG/1.1/DTD/svg11.dtd">
<svg version="1.1" id="Layer_1" xmlns="http://www.w3.org/2000/svg" xmlns:xlink="http://www.w3.org/1999/xlink" x="0px" y="0px"
	 width="64px" height="64px" viewBox="0 0 64 64" enable-background="new 0 0 64 64" xml:space="preserve">
<g>
	<defs>
		<rect id="SVGID_1_" width="64" height="64"/>
	</defs>
	<clipPath id="SVGID_2_">
		<use xlink:href="#SVGID_1_"  overflow="visible"/>
	</clipPath>
	<g clip-path="url(#SVGID_2_)">
		<defs>
			<rect id="SVGID_3_" width="64" height="64"/>
		</defs>
		<clipPath id="SVGID_4_">
			<use xlink:href="#SVGID_3_"  overflow="visible"/>
		</clipPath>
		<path clip-path="url(#SVGID_4_)" fill="#4F5D73" d="M64,32c0,17.673-14.327,32-32,32S0,49.673,0,32S14.327,0,32,0S64,14.327,64,32
			"/>
		<g opacity="0.2" clip-path="url(#SVGID_4_)">
			<g>
				<defs>
					<rect id="SVGID_5_" x="12.287" y="10" width="39.426" height="48"/>
				</defs>
				<clipPath id="SVGID_6_">
					<use xlink:href="#SVGID_5_"  overflow="visible"/>
				</clipPath>
				<path clip-path="url(#SVGID_6_)" fill="#231F20" d="M43.905,47.543c-3.821-1.66-5.218-4.242-5.644-6.469
					c2.752-2.214,4.944-5.756,6.148-9.572c1.238-1.58,1.961-3.226,1.961-4.621c0-0.955-0.348-1.645-0.955-2.158
					c-0.203-8.105-5.941-14.613-13.038-14.713c-0.056-0.001-0.11-0.01-0.165-0.01c-0.022,0-0.043,0.004-0.065,0.004
					c-7.052,0.039-12.782,6.41-13.125,14.408c-0.884,0.529-1.394,1.305-1.394,2.469c0,1.641,0.993,3.63,2.663,5.448
					c1.188,3.327,3.118,6.38,5.501,8.438c-0.355,2.292-1.7,5.039-5.698,6.776c-2.158,0.938-6.105,1.781-7.807,2.649
					c4.362,4.769,12.624,7.77,19.588,7.805l0.099,0.002C31.984,57.999,31.992,58,32,58c7.014,0,15.325-3.01,19.713-7.808
					C50.01,49.324,46.063,48.481,43.905,47.543"/>
			</g>
		</g>
		<path clip-path="url(#SVGID_4_)" fill="#FFFFFF" d="M43.905,45.543c-3.821-1.66-5.218-4.242-5.644-6.469
			c2.752-2.214,4.944-5.756,6.148-9.572c1.238-1.58,1.961-3.226,1.961-4.621c0-0.955-0.348-1.645-0.955-2.158
			C45.213,14.618,39.475,8.11,32.378,8.01C32.322,8.009,32.268,8,32.213,8c-0.022,0-0.043,0.004-0.065,0.004
			c-7.052,0.039-12.782,6.41-13.125,14.408c-0.884,0.529-1.394,1.305-1.394,2.469c0,1.641,0.993,3.63,2.663,5.448
			c1.188,3.327,3.118,6.38,5.501,8.438c-0.355,2.292-1.7,5.039-5.698,6.776c-2.158,0.938-6.105,1.781-7.807,2.649
			c4.362,4.769,12.624,7.77,19.588,7.805l0.099,0.002C31.984,55.999,31.992,56,32,56c7.014,0,15.325-3.01,19.713-7.808
			C50.01,47.324,46.063,46.481,43.905,45.543"/>
	</g>
</g>
</svg>
