<?xml version="1.0" encoding="utf-8"?>
<!-- Generator: Adobe Illustrator 15.0.0, SVG Export Plug-In . SVG Version: 6.00 Build 0)  -->
<!DOCTYPE svg PUBLIC "-//W3C//DTD SVG 1.1//EN" "http://www.w3.org/Graphics/SVG/1.1/DTD/svg11.dtd">
<svg version="1.1" id="Layer_1" xmlns="http://www.w3.org/2000/svg" xmlns:xlink="http://www.w3.org/1999/xlink" x="0px" y="0px"
	 width="64px" height="64px" viewBox="0 0 64 64" enable-background="new 0 0 64 64" xml:space="preserve">
<g>
	<defs>
		<rect id="SVGID_1_" width="64" height="64"/>
	</defs>
	<clipPath id="SVGID_2_">
		<use xlink:href="#SVGID_1_"  overflow="visible"/>
	</clipPath>
	<g clip-path="url(#SVGID_2_)">
		<defs>
			<rect id="SVGID_3_" width="64" height="64"/>
		</defs>
		<clipPath id="SVGID_4_">
			<use xlink:href="#SVGID_3_"  overflow="visible"/>
		</clipPath>
		<path clip-path="url(#SVGID_4_)" fill="#77B3D4" d="M64,32c0,17.673-14.327,32-32,32S0,49.673,0,32S14.327,0,32,0S64,14.327,64,32
			"/>
		<g opacity="0.2" clip-path="url(#SVGID_4_)">
			<g>
				<defs>
					<rect id="SVGID_5_" x="12" y="14" width="40" height="38"/>
				</defs>
				<clipPath id="SVGID_6_">
					<use xlink:href="#SVGID_5_"  overflow="visible"/>
				</clipPath>
				<path clip-path="url(#SVGID_6_)" fill="#231F20" d="M52,48c0,2.209-1.791,4-4,4H16c-2.209,0-4-1.791-4-4V18c0-2.209,1.791-4,4-4
					h32c2.209,0,4,1.791,4,4V48z"/>
			</g>
		</g>
		<path clip-path="url(#SVGID_4_)" fill="#FFFFFF" d="M12,21.5V46c0,2.209,1.791,4,4,4h32c2.209,0,4-1.791,4-4V21.5H12z"/>
		<g opacity="0.2" clip-path="url(#SVGID_4_)">
			<g>
				<defs>
					<rect id="SVGID_7_" x="12" y="14" width="40" height="10"/>
				</defs>
				<clipPath id="SVGID_8_">
					<use xlink:href="#SVGID_7_"  overflow="visible"/>
				</clipPath>
				<path clip-path="url(#SVGID_8_)" fill="#231F20" d="M52,18c0-2.209-1.791-4-4-4H16c-2.209,0-4,1.791-4,4v6h40V18z"/>
			</g>
		</g>
		<path clip-path="url(#SVGID_4_)" fill="#E0E0D1" d="M52,16c0-2.209-1.791-4-4-4H16c-2.209,0-4,1.791-4,4v6h40V16z"/>
		<path clip-path="url(#SVGID_4_)" fill="#E0995E" d="M25,17c0-1.105-0.895-2-2-2s-2,0.895-2,2s0.895,2,2,2S25,18.105,25,17"/>
		<path clip-path="url(#SVGID_4_)" fill="#76C2AF" d="M31,17c0-1.105-0.895-2-2-2s-2,0.895-2,2s0.895,2,2,2S31,18.105,31,17"/>
		<path clip-path="url(#SVGID_4_)" fill="#C75C5C" d="M19,17c0-1.105-0.895-2-2-2s-2,0.895-2,2s0.895,2,2,2S19,18.105,19,17"/>
		<rect x="16" y="28" clip-path="url(#SVGID_4_)" fill="#4F5D73" width="12" height="18"/>
		<rect x="32" y="28" clip-path="url(#SVGID_4_)" fill="#E0E0D1" width="16" height="2"/>
		<rect x="32" y="32" clip-path="url(#SVGID_4_)" fill="#E0E0D1" width="16" height="2"/>
		<rect x="32" y="36" clip-path="url(#SVGID_4_)" fill="#E0E0D1" width="16" height="2"/>
		<rect x="32" y="40" clip-path="url(#SVGID_4_)" fill="#E0E0D1" width="16" height="2"/>
		<rect x="32" y="44" clip-path="url(#SVGID_4_)" fill="#E0E0D1" width="16" height="2"/>
	</g>
</g>
</svg>
